<?xml version="1.0" standalone="no"?><!DOCTYPE svg PUBLIC "-//W3C//DTD SVG 1.1//EN" "http://www.w3.org/Graphics/SVG/1.1/DTD/svg11.dtd"><svg t="1696899966073" class="icon" viewBox="0 0 1024 1024" version="1.1" xmlns="http://www.w3.org/2000/svg" p-id="1285" xmlns:xlink="http://www.w3.org/1999/xlink" width="200" height="200"><path d="M14.8973037 14.8973037m372.82702222 0l248.55134816 0q372.82702222 0 372.82702222 372.82702222l0 248.55134816q0 372.82702222-372.82702222 372.82702222l-248.55134816 0q-372.82702222 0-372.82702222-372.82702222l0-248.55134816q0-372.82702222 372.82702222-372.82702222Z" fill="#64CBFF" p-id="1286"></path><path d="M608.31364741 263.44865185c94.37494689 0 170.87905185 76.50410496 170.87905184 170.87905185v31.06891852c0 94.37494689-76.50410496 170.87905185-170.87905184 170.87905186H463.86181765L338.0140563 760.55134815v-124.27567407h-15.53445927C228.10465014 636.27567408 151.60054518 559.77156912 151.60054518 465.39662222v-31.06891852C151.60054518 339.95275681 228.10465014 263.44865185 322.47959703 263.44865185h285.83405038zM344.22784 412.57946075a37.28270222 37.28270222 0 1 0 0 74.56540443 37.28270222 37.28270222 0 0 0 0-74.56540443z m124.27567408 0a37.28270222 37.28270222 0 1 0 0 74.56540443 37.28270222 37.28270222 0 0 0 0-74.56540443z m124.27567407 0a37.28270222 37.28270222 0 1 0 0 74.56540443 37.28270222 37.28270222 0 0 0 0-74.56540443z" fill="#FFFFFF" fill-opacity=".8" p-id="1287"></path><path d="M521.32067555 369.08297482C440.67197686 369.08297482 375.29675852 434.45819316 375.29675852 515.10689185S440.67197686 661.13080889 521.32067555 661.13080889h99.32111872L723.26864592 760.55134815v-99.42053926h3.10689186c80.64869869 0 146.02391703-65.37521835 146.02391704-146.02391704S807.02423647 369.08297482 726.37553778 369.08297482h-205.05486223z m198.50553421 116.81913363c16.30496844 0 29.52790016 13.07380091 29.52790016 29.2047834s-13.22293172 29.20478341-29.52790016 29.2047834c-16.31118222 0-29.53411394-13.07380091-29.53411395-29.2047834s13.22293172-29.20478341 29.53411395-29.2047834z m-98.43876144 0c16.31118222 0 29.52790016 13.07380091 29.52790016 29.2047834s-13.21671794 29.20478341-29.52790016 29.2047834-29.53411394-13.07380091-29.53411394-29.2047834 13.22293172-29.20478341 29.53411394-29.2047834z m-98.43876144 0c16.31118222 0 29.53411394 13.07380091 29.53411395 29.2047834s-13.22293172 29.20478341-29.53411395 29.2047834c-16.30496844 0-29.52790016-13.07380091-29.52790016-29.2047834s13.22293172-29.20478341 29.52790016-29.2047834z" fill="#FFFFFF" p-id="1288"></path></svg>