<?xml version="1.0" standalone="no"?><!DOCTYPE svg PUBLIC "-//W3C//DTD SVG 1.1//EN" "http://www.w3.org/Graphics/SVG/1.1/DTD/svg11.dtd"><svg t="1696899960786" class="icon" viewBox="0 0 1024 1024" version="1.1" xmlns="http://www.w3.org/2000/svg" p-id="978" xmlns:xlink="http://www.w3.org/1999/xlink" width="200" height="200"><path d="M350.09487189 709.64825428c1.2899146-1.9556773 0.6657627-5.86703189-1.95567729-8.44686219-3.24559189-2.62144-7.15694764-3.24559189-9.11262493-1.28991575-1.2899146 1.9556773-0.6657627 5.86703189 1.95567844 8.44686222 3.24559189 2.62144 7.15694764 3.24559189 9.11262378 1.28991574z m-18.18363904-26.67211206c-1.9556773-2.62144-5.20127033-3.9113546-7.78109952-2.62144-1.9556773 1.2899146-1.9556773 5.20127033 0 7.78109952 2.62144 3.24559189 5.86703189 4.53550764 7.78109952 3.24559303 1.9556773-1.2899146 1.9556773-5.20127033 0-8.44686222z m-26.67211207-26.00634937c0.6657627-1.2899146-0.6657627-3.9113546-3.24559189-5.20126919-1.9556773-0.6657627-4.53550764-0.6657627-5.20127033 1.2899146-1.2899146 1.9556773 0 3.9113546 2.62144 5.20126919 2.62144 0.6657627 5.20127033 0.6657627 5.86703303-1.2899146z m13.64813255 14.97965682c1.2899146-1.2899146 1.2899146-4.53550764-1.28991458-6.49118378-1.9556773-2.62144-5.20127033-3.24559189-6.49118494-1.95567844-1.9556773 1.9556773-1.2899146 4.53550764 0.66576271 7.15694762 1.9556773 1.9556773 5.20127033 3.24559189 7.15694649 1.2899146z m55.92405334 48.76710685c0.6657627-2.62144-1.9556773-5.86703189-5.8670319-7.15694763s-7.15694764 0-8.44686222 2.62144c-0.6657627 2.62144 1.9556773 5.86703189 5.8670319 7.15694763s7.15694764 0 8.44686222-2.62144z m27.29626396 1.95567729c0-2.62144-3.24559189-5.20127033-7.78109952-5.20127031-3.9113546 0-6.49118493 2.62144-6.49118492 5.20127031s3.24559189 5.20127033 7.15694762 5.2012692 7.15694764-2.62144 7.15694763-5.2012692z m25.38219748-4.57711729c-0.6657627-2.62144-4.53550764-3.9113546-8.44686222-3.24559302s-6.49118493 3.24559189-5.86703304 5.86703302 3.9113546 4.53550764 7.78109953 3.91135459 6.49118493-3.9113546 6.49118492-6.49118492zM844.88127033 512c0-184.00012174-148.88114745-332.88127033-332.88127033-332.88127033s-332.88127033 148.88114745-332.88127033 332.88127033c0 146.92547014 95.57853411 271.75594667 227.56595824 315.98754589 16.89372445 3.24559189 22.76075634-7.15694764 22.76075749-16.26957256 0-7.78109952 0-33.78744889-0.6657627-61.74947555 0 0-92.33294222 20.13931634-111.84810667-39.65448079 0 0-14.93804715-38.36456619-37.07465158-48.10134414 0 0-29.91770397-20.80507903 2.62144-20.80507904 0 0 32.4975343 2.62144 50.722783 34.45321161 29.25194127 51.34693603 78.01904811 36.40888889 96.86844985 27.96202667 3.24559189-21.47084174 11.69245411-36.40888889 21.47084173-44.85575112-74.10769236-8.44686222-152.12674048-37.07465159-152.12674047-164.48495731 0-36.40888889 13.02397952-65.66083017 34.45321158-89.08735033-3.24559189-8.44686222-14.93804715-42.27592078 3.24559303-88.42158761 27.96202667-8.44686222 91.66717952 34.45321159 91.66717953 34.45321158 26.67211206-7.78109952 54.63413875-11.06830222 83.2203173-11.06830223s56.54820523 3.24559189 83.2203173 11.06830223c0 0 63.70515285-42.90007381 91.66717951-34.45321158 18.22524986 46.1456657 6.49118493 79.9747254 3.24559302 88.42158761 21.47084174 23.38490937 34.45321159 52.67846144 34.45321161 89.08735033 0 128.07606841-78.01904811 156.03809507-152.12674049 164.48495731 11.69245411 10.40253952 22.76075634 30.54185699 22.76075635 61.74947555 0 44.18998841-0.6657627 79.9747254-0.66576272 91.04302649 0 9.11262493 5.86703189 19.51516445 22.76075748 16.26957254C749.30273507 783.83916715 844.88127033 659.00869063 844.88127033 512.04160967z m166.4406346-312.07619017v624.15238031c0 103.35963477-83.88608 187.24571477-187.24571476 187.24571479h-624.15238031A187.32893411 187.32893411 0 0 1 12.67809507 824.07619017v-624.15238031C12.67809507 96.56417507 96.56417507 12.67809507 199.92380983 12.67809507h624.15238031C927.43582493 12.67809507 1011.32190493 96.56417507 1011.32190493 199.92380983z" fill="#64CBFF" p-id="979"></path></svg>