<?xml version="1.0" standalone="no"?><!DOCTYPE svg PUBLIC "-//W3C//DTD SVG 1.1//EN" "http://www.w3.org/Graphics/SVG/1.1/DTD/svg11.dtd"><svg t="1696899963415" class="icon" viewBox="0 0 1024 1024" version="1.1" xmlns="http://www.w3.org/2000/svg" p-id="1131" xmlns:xlink="http://www.w3.org/1999/xlink" width="200" height="200"><path d="M14.8973037 14.8973037m372.82702222 0l248.55134816 0q372.82702222 0 372.82702222 372.82702222l0 248.55134816q0 372.82702222-372.82702222 372.82702222l-248.55134816 0q-372.82702222 0-372.82702222-372.82702222l0-248.55134816q0-372.82702222 372.82702222-372.82702222Z" fill="#64CBFF" p-id="1132"></path><path d="M447.25237381 527.03735657a49.71026963 49.71026963 0 0 1 49.71026962 49.71026962V679.77216c0 61.7712238-50.07066909 111.84810667-111.84810666 111.84810667H344.22784c-61.7712238 0-111.84810667-50.07688287-111.84810667-111.84810667v-40.88669677c0-61.77743758 50.07688287-111.84810667 111.84810667-111.84810666z m232.51978619 0c61.7712238 0 111.84810667 50.07066909 111.84810667 111.84810666V679.77216c0 61.7712238-50.07688287 111.84810667-111.84810667 111.84810667h-40.88669677c-61.77743758 0-111.84810667-50.07688287-111.84810666-111.84810667V576.74762619a49.71026963 49.71026963 0 0 1 49.71026962-49.71026962H679.77216zM385.11453677 232.37973333c61.77743758 0 111.84810667 50.07688287 111.84810666 111.84810667v103.02453381a49.71026963 49.71026963 0 0 1-49.71026962 49.71026962H344.22784c-61.7712238 0-111.84810667-50.07066909-111.84810667-111.84810666V344.22784c0-61.7712238 50.07688287-111.84810667 111.84810667-111.84810667h40.88669677zM679.77216 232.37973333c61.7712238 0 111.84810667 50.07688287 111.84810667 111.84810667v40.88669677c0 61.77743758-50.07688287 111.84810667-111.84810667 111.84810666H576.74762619a49.71026963 49.71026963 0 0 1-49.71026962-49.71026962V344.22784c0-61.7712238 50.07066909-111.84810667 111.84810666-111.84810667z" fill="#FFFFFF" fill-opacity=".8" p-id="1133"></path></svg>