<?xml version="1.0" standalone="no"?><!DOCTYPE svg PUBLIC "-//W3C//DTD SVG 1.1//EN" "http://www.w3.org/Graphics/SVG/1.1/DTD/svg11.dtd"><svg t="1695885039549" class="icon" viewBox="0 0 1024 1024" version="1.1" xmlns="http://www.w3.org/2000/svg" p-id="1595" xmlns:xlink="http://www.w3.org/1999/xlink" width="200" height="200"><path d="M512 512.002m-511.998 0a511.998 511.998 0 1 0 1023.996 0 511.998 511.998 0 1 0-1023.996 0Z" fill="#323232" p-id="1596"></path><path d="M512.002 512.004m-407.00441 0a407.00441 407.00441 0 1 0 814.00882 0 407.00441 407.00441 0 1 0-814.00882 0Z" fill="#494A4A" p-id="1597"></path><path d="M748.147078 633.967524a69.507728 69.507728 0 0 0-8.737966-37.431854h0.004l-0.012-0.016a68.079734 68.079734 0 0 0-2.249991-3.739986c-0.066-0.102-0.128-0.203999-0.196-0.303998a70.573724 70.573724 0 0 0-5.281979-7.101973c-0.078-0.088-0.159999-0.179999-0.233999-0.269999a70.571724 70.571724 0 0 0-2.72599-2.999988c-0.102-0.108-0.203999-0.217999-0.307998-0.323999a70.909723 70.909723 0 0 0-6.409975-5.815977 59.539767 59.539767 0 0 0-0.557998-0.435998c-0.979996-0.769997-1.983992-1.515994-3.007988-2.235991-0.163999-0.116-0.323999-0.235999-0.487998-0.345999a69.493729 69.493729 0 0 0-3.631986-2.349991c-0.086-0.048-0.171999-0.094-0.253999-0.143999a72.921715 72.921715 0 0 0-7.533971-3.879985c-0.203999-0.092-0.405998-0.189999-0.613997-0.275999a69.24773 69.24773 0 0 0-3.933985-1.551994c-0.269999-0.096-0.545998-0.179999-0.815997-0.273999a67.887735 67.887735 0 0 0-4.389983-1.355995 66.751739 66.751739 0 0 0-3.605986-0.879996c-0.179999-0.04-0.359999-0.09-0.541998-0.126a69.325729 69.325729 0 0 0-4.203983-0.727997c-0.375999-0.054-0.757997-0.098-1.135996-0.143999a71.035723 71.035723 0 0 0-3.277987-0.339999c-0.417998-0.032-0.835997-0.07-1.253995-0.094a70.775724 70.775724 0 0 0-4.381983-0.149999c-7.109972 0-13.963945 1.067996-20.42992 3.041988a104.063594 104.063594 0 0 0-12.127953-11.083957c12.651951-30.503881 19.651923-63.94375 19.651924-99.023613 0-142.855442-115.803548-258.66099-258.65499-258.660989-87.04966 0-164.057359 43.005832-210.937176 108.927574 30.135882-21.563916 67.053738-34.259866 106.937582-34.259866 5.16398 0 10.27396 0.223999 15.32794 0.639997a183.129285 183.129285 0 0 1 50.703802 11.575955 179.983297 179.983297 0 0 1 7.67197 3.157988l0.253999 0.107999a186.207273 186.207273 0 0 1 7.437971 3.467987c0.09 0.048 0.183999 0.092 0.273999 0.135999a178.245304 178.245304 0 0 1 7.253972 3.801985l0.213999 0.12a184.37328 184.37328 0 0 1 7.131972 4.167984c0.024 0.012 0.042 0.028 0.066 0.04a184.605279 184.605279 0 0 1 32.707872 25.641899l0.319999 0.313999a183.253284 183.253284 0 0 1 5.899977 6.109976 186.475272 186.475272 0 0 1 5.10598 5.769978l0.495998 0.587997a188.215265 188.215265 0 0 1 5.287979 6.589975 182.959285 182.959285 0 0 1 4.527983 6.171976l0.433998 0.619997a181.909289 181.909289 0 0 1 4.289983 6.443975c0.114 0.171999 0.217999 0.349999 0.327999 0.525998a178.829301 178.829301 0 0 1 4.085984 6.785973l0.171999 0.307999a183.749282 183.749282 0 0 1 4.429983 8.295968 56.147781 56.147781 0 0 0-12.573951 2.299991c-15.117941-16.231937-36.675857-26.391897-60.613763-26.391897-31.877875 0-59.549767 18.01993-73.389714 44.427826a42.649833 42.649833 0 0 0-10.511958-1.311994c-23.433908 0-42.437834 18.969926-42.495834 42.393834-26.351897 21.477916-42.295835 49.485807-42.295835 80.115687 0 0.481998 0.032 0.957996 0.081999 1.431994 0.016 0.143999 0.04 0.285999 0.062 0.429999a12.655951 12.655951 0 0 0 0.285999 1.479994c0.09 0.365999 0.199999 0.729997 0.319999 1.095996 0.036 0.102 0.066 0.207999 0.105999 0.313998 0.167999 0.475998 0.363999 0.949996 0.585998 1.421995 0.028 0.062 0.066 0.126 0.094 0.187999 0.199999 0.407998 0.413998 0.811997 0.647997 1.219995l0.213999 0.353999c0.225999 0.365999 0.463998 0.733997 0.717998 1.097996 0.07 0.102 0.139999 0.207999 0.213999 0.307999 0.679997 0.945996 1.459994 1.879993 2.343991 2.805989l0.117999 0.119999c0.409998 0.423998 0.839997 0.845997 1.289995 1.265995l0.209999 0.195999a37.573853 37.573853 0 0 0 1.537994 1.343995c1.139996 0.941996 2.381991 1.871993 3.725986 2.785989l0.016 0.012a57.019777 57.019777 0 0 0 2.105991 1.367995c26.917895 16.801934 87.991656 28.531889 159.041379 28.531888 19.351924 0 37.963852-0.869997 55.351784-2.47799-0.167999 0.249999-0.327999 0.505998-0.499998 0.751997l-0.425998 0.617998a183.335284 183.335284 0 0 1-4.535983 6.175976l-0.483998 0.629997a186.505271 186.505271 0 0 1-4.803981 5.955977l-0.491998 0.581998c-1.659994 1.959992-3.363987 3.889985-5.10998 5.777977-0.143999 0.157999-0.289999 0.311999-0.437998 0.469998-1.781993 1.917993-3.601986 3.799985-5.459979 5.641978l-0.307999 0.295999a183.289284 183.289284 0 0 1-5.877977 5.547978l-0.066 0.06a184.897278 184.897278 0 0 1-33.979867 24.253905l-0.191999 0.11a181.74929 181.74929 0 0 1-7.273972 3.809985l-0.257999 0.128a181.365292 181.365292 0 0 1-7.69597 3.581986 183.159285 183.159285 0 0 1-7.68397 3.159987l-0.143999 0.054a183.059285 183.059285 0 0 1-50.549803 11.517955c-5.05398 0.415998-10.16396 0.639998-15.32794 0.639998-39.881844 0-76.7997-12.69395-106.941582-34.259867 41.265839 58.029773 105.885586 98.285616 180.143296 107.097582a109.547572 109.547572 0 0 0-3.257987 26.449897c0 0.595998 0.042 1.189995 0.106 1.779993 0.02 0.179999 0.05 0.357999 0.073999 0.535998a17.207933 17.207933 0 0 0 0.751997 3.199987c0.046 0.131999 0.082 0.265999 0.132 0.401999 0.209999 0.587998 0.453998 1.175995 0.725997 1.761993 0.04 0.08 0.086 0.159999 0.125999 0.241999 0.241999 0.503998 0.511998 1.003996 0.799997 1.503994 0.086 0.149999 0.179999 0.299999 0.269999 0.447998 0.277999 0.457998 0.573998 0.911996 0.885997 1.363995 0.09 0.126 0.175999 0.255999 0.269999 0.381998 0.847997 1.175995 1.815993 2.335991 2.913988 3.485987l0.156 0.161999c0.503998 0.519998 1.035996 1.041996 1.589994 1.559994l0.277998 0.253999c0.589998 0.539998 1.203995 1.081996 1.847993 1.613994l0.058 0.051999a61.871758 61.871758 0 0 0 4.665982 3.487987c0.823997 0.557998 1.679993 1.115996 2.56199 1.667993l0.042 0.026c33.475869 20.893918 109.437573 35.481861 197.795227 35.481862 119.323534 0 216.053156-26.599896 216.053156-59.411768-0.002-39.661845-21.497916-75.779704-56.709778-102.885598z" fill="#323232" p-id="1598"></path><path d="M573.851758 401.780431c0.042-0.919996 0.07-1.841993 0.07-2.77599 0-31.027879-25.155902-56.179781-56.18378-56.17978-5.713978 0-11.225956 0.859997-16.425936 2.44599-15.117941-16.231937-36.675857-26.391897-60.613763-26.391897-31.877875 0-59.549767 18.01993-73.389714 44.427827a42.649833 42.649833 0 0 0-10.511959-1.311995c-23.433908 0-42.437834 18.969926-42.495834 42.393834-26.351897 21.477916-42.295835 49.485807-42.295835 80.115687 0 26.383897 77.777696 47.771813 173.721322 47.771814 95.941625 0 173.717321-21.387916 173.717321-47.771814 0.002-31.887875-17.279933-60.929762-45.591822-82.723676z" fill="#CDCCCA" p-id="1599"></path><path d="M293.766852 506.266022c0-30.63188 15.945938-58.637771 42.295835-80.117687 0.058-23.421909 19.061926-42.389834 42.495834-42.389834 3.627986 0 7.147972 0.453998 10.511959 1.309995 13.839946-26.407897 41.511838-44.429826 73.393713-44.429827 23.933907 0 45.491822 10.15796 60.609764 26.393897a56.19578 56.19578 0 0 1 16.425936-2.44799c9.921961 0 19.237925 2.57999 27.327893 7.093972-9.601962-17.211933-27.979891-28.857887-49.089808-28.857887-5.713978 0-11.225956 0.859997-16.425936 2.44599-15.117941-16.231937-36.675857-26.391897-60.613763-26.391897-31.877875 0-59.549767 18.01993-73.389714 44.427827a42.649833 42.649833 0 0 0-10.511959-1.311995c-23.433908 0-42.437834 18.969926-42.495834 42.393834-26.351897 21.477916-42.295835 49.485807-42.295835 80.115687 0 8.421967 7.933969 16.331936 21.847915 23.20391a13.245948 13.245948 0 0 1-0.086-1.437995z" fill="#E8E9EC" p-id="1600"></path><path d="M453.468229 166.921348c-87.04966 0-164.057359 43.005832-210.937176 108.927574 30.135882-21.563916 67.053738-34.259866 106.937582-34.259866 101.617603 0 183.987281 82.375678 183.987281 183.993282 0 101.611603-82.371678 183.983281-183.987281 183.983281-39.881844 0-76.7997-12.69395-106.941582-34.259866 46.877817 65.919743 123.885516 108.927575 210.941176 108.927574 142.851442 0 258.65499-115.803548 258.654989-258.650989 0.002-142.855442-115.803548-258.66099-258.654989-258.66099z" fill="#DDAE2A" p-id="1601"></path><path d="M364.796575 608.923621c5.05798 0.417998 10.17596 0.639998 15.33994 0.639998 101.617603 0 183.987281-82.371678 183.987281-183.983281 0-101.615603-82.371678-183.993281-183.987281-183.993282-5.16398 0-10.28196 0.221999-15.33994 0.639998 94.441631 7.79197 168.659341 86.897661 168.659341 183.351284 0.002 96.451623-74.21771 175.553314-168.659341 183.345283z" fill="#EDC849" p-id="1602"></path><path d="M794.814895 605.967633c0.054-1.143996 0.086-2.291991 0.086-3.451987 0-38.587849-31.285878-69.869727-69.871727-69.869727-7.109972 0-13.963945 1.067996-20.42992 3.041988-18.799927-20.189921-45.613822-32.823872-75.381706-32.823871-39.647845 0-74.061711 22.411912-91.277643 55.255784a52.917793 52.917793 0 0 0-13.069949-1.631994c-29.143886 0-52.781794 23.591908-52.851794 52.721794-32.773872 26.711896-52.605795 61.54776-52.605794 99.641611 0 32.811872 96.729622 59.411768 216.053156 59.411768s216.053156-26.599896 216.053156-59.411768c0.004-39.659845-21.491916-75.777704-56.703779-102.883598z" fill="#CDCCCA" p-id="1603"></path><path d="M446.480256 735.915125c0-38.093851 19.827923-72.925715 52.601794-99.63761 0.074-29.127886 23.707907-52.719794 52.851794-52.719795 4.515982 0 8.893965 0.565998 13.073949 1.631994 17.209933-32.843872 51.625798-55.257784 91.277643-55.257784 29.765884 0 56.577779 12.631951 75.381706 32.825872a69.931727 69.931727 0 0 1 20.42592-3.041988c12.339952 0 23.925907 3.207987 33.987867 8.823965-11.941953-21.407916-34.799864-35.88986-61.049761-35.88986-7.109972 0-13.963945 1.067996-20.42992 3.041988-18.799927-20.189921-45.613822-32.823872-75.381706-32.823871-39.647845 0-74.061711 22.411912-91.277643 55.255784a52.917793 52.917793 0 0 0-13.069949-1.631994c-29.143886 0-52.781794 23.591908-52.851794 52.721794-32.773872 26.711896-52.605795 61.54776-52.605794 99.641611 0 10.473959 9.871961 20.311921 27.171894 28.855887a17.411932 17.411932 0 0 1-0.106-1.795993z" fill="#E8E9EC" p-id="1604"></path></svg>