<?xml version="1.0" standalone="no"?><!DOCTYPE svg PUBLIC "-//W3C//DTD SVG 1.1//EN" "http://www.w3.org/Graphics/SVG/1.1/DTD/svg11.dtd"><svg t="1696899970813" class="icon" viewBox="0 0 1024 1024" version="1.1" xmlns="http://www.w3.org/2000/svg" p-id="1594" xmlns:xlink="http://www.w3.org/1999/xlink" width="200" height="200"><path d="M14.8973037 14.8973037m372.82702222 0l248.55134816 0q372.82702222 0 372.82702222 372.82702222l0 248.55134816q0 372.82702222-372.82702222 372.82702222l-248.55134816 0q-372.82702222 0-372.82702222-372.82702222l0-248.55134816q0-372.82702222 372.82702222-372.82702222Z" fill="#5D7A68" p-id="1595"></path><path d="M645.09924693 226.16594963c93.62929285 51.12079853 157.14658987 150.48541374 157.14658987 264.68233064 0 166.44241029-134.93231312 301.36850963-301.36850963 301.36850963-127.87966862 0-237.14905505-79.64206573-280.92516125-192.03077157a300.00147722 300.00147722 0 0 0 144.22191977 36.68617898c166.4361965 0 301.36850963-134.92609934 301.36850963-301.36850963 0-38.27690762-7.14585125-74.89473499-20.15751434-108.58587022z" fill="#FFFFFF" fill-opacity=".8" p-id="1596"></path></svg>