<?xml version="1.0" standalone="no"?><!DOCTYPE svg PUBLIC "-//W3C//DTD SVG 1.1//EN" "http://www.w3.org/Graphics/SVG/1.1/DTD/svg11.dtd"><svg t="1696899972894" class="icon" viewBox="0 0 1024 1024" version="1.1" xmlns="http://www.w3.org/2000/svg" p-id="1748" xmlns:xlink="http://www.w3.org/1999/xlink" width="200" height="200"><path d="M14.8973037 14.8973037m372.82702222 0l248.55134816 0q372.82702222 0 372.82702222 372.82702222l0 248.55134816q0 372.82702222-372.82702222 372.82702222l-248.55134816 0q-372.82702222 0-372.82702222-372.82702222l0-248.55134816q0-372.82702222 372.82702222-372.82702222Z" fill="#73E151" p-id="1749"></path><path d="M591.80983789 767.67234427a52.41326555 52.41326555 0 1 1-104.04359434 12.7755393 52.41326555 52.41326555 0 0 1 104.04359434-12.7755393z m-157.76175446-57.66391277a52.41326555 52.41326555 0 1 1-37.56853626 97.86709333 52.41326555 52.41326555 0 0 1 37.56853626-97.86709333z m265.9623701-10.49508067a52.41326555 52.41326555 0 1 1-85.87449079 60.1307849 52.41326555 52.41326555 0 0 1 85.87449079-60.1307849z m-349.02823065-46.9016394a52.41326555 52.41326555 0 1 1-77.90220629 70.14740423 52.41326555 52.41326555 0 0 1 77.90220629-70.14740423z m157.21494149-322.16604369c101.32195707 0 183.45575007 82.13379299 183.45575007 183.44953629 0 101.32195707-82.13379299 183.45575007-183.45575007 183.45575007-101.31574329 0-183.44953629-82.13379299-183.44953628-183.45575007 0-101.31574329 82.13379299-183.44953629 183.44953628-183.44953629z m256.66654967 258.96564965a52.41326555 52.41326555 0 1 1-49.21316694 92.55430826 52.41326555 52.41326555 0 0 1 49.21316694-92.55430826z m-460.2673865-25.4765132a52.41326555 52.41326555 0 1 1-101.71963923 25.3584513 52.41326555 52.41326555 0 0 1 101.71963923-25.3584513z m465.67959211-102.4528657a52.41326555 52.41326555 0 1 1 0 104.82653108 52.41326555 52.41326555 0 0 1 0-104.82653108z m-503.85707919-61.162273a52.41326555 52.41326555 0 1 1-25.35845129 101.71963924 52.41326555 52.41326555 0 0 1 25.35845129-101.71963924z m520.11855113-32.82120552a52.41326555 52.41326555 0 1 1-92.56052204 49.21316693 52.41326555 52.41326555 0 0 1 92.56052204-49.21316693zM347.10482186 301.15389136a52.41326555 52.41326555 0 1 1-70.14740424 77.90842009 52.41326555 52.41326555 0 0 1 70.14740424-77.90842009z m340.03067183-45.87636508a52.41326555 52.41326555 0 1 1-60.12457112 85.87449079 52.41326555 52.41326555 0 0 1 60.12457112-85.87449079z m-222.93813172-5.21336452a52.41326555 52.41326555 0 1 1-97.86709333 37.56853627 52.41326555 52.41326555 0 0 1 97.86709333-37.56853627zM546.17581037 201.70849697a52.41326555 52.41326555 0 1 1-12.7755393 104.04980812A52.41326555 52.41326555 0 0 1 546.17581037 201.70849697z" fill="#FFFFFF" fill-opacity=".8" p-id="1750"></path></svg>