<?xml version="1.0" standalone="no"?><!DOCTYPE svg PUBLIC "-//W3C//DTD SVG 1.1//EN" "http://www.w3.org/Graphics/SVG/1.1/DTD/svg11.dtd"><svg t="1695885036585" class="icon" viewBox="0 0 1024 1024" version="1.1" xmlns="http://www.w3.org/2000/svg" p-id="1432" xmlns:xlink="http://www.w3.org/1999/xlink" width="200" height="200"><path d="M512 512.002m-511.998 0a511.998 511.998 0 1 0 1023.996 0 511.998 511.998 0 1 0-1023.996 0Z" fill="#1669AD" p-id="1433"></path><path d="M512 512.004m-407.00441 0a407.00441 407.00441 0 1 0 814.00882 0 407.00441 407.00441 0 1 0-814.00882 0Z" fill="#2A81C2" p-id="1434"></path><path d="M846.872692 437.414291a55.905782 55.905782 0 0 0-8.847966-33.13187l-0.139999-0.213999a56.513779 56.513779 0 0 0-4.265983-5.733978l-0.16-0.183999c-0.717997-0.839997-1.459994-1.659994-2.229991-2.457991l-0.213999-0.225999a56.20778 56.20778 0 0 0-5.17998-4.695981c-0.135999-0.112-0.277999-0.219999-0.417998-0.327999a56.533779 56.533779 0 0 0-2.463991-1.831993l-0.351998-0.249999c-0.959996-0.663997-1.941992-1.301995-2.945989-1.901993-0.05-0.032-0.106-0.06-0.159999-0.091999a56.713778 56.713778 0 0 0-6.117976-3.151988c-0.151999-0.068-0.303999-0.139999-0.457998-0.205999a53.365792 53.365792 0 0 0-3.183988-1.251995c-0.207999-0.076-0.417998-0.141999-0.627998-0.213999a55.883782 55.883782 0 0 0-3.541986-1.093996c-0.959996-0.259999-1.933992-0.499998-2.917988-0.711997-0.139999-0.03-0.281999-0.068-0.421999-0.096a53.891789 53.891789 0 0 0-3.377986-0.587998c-0.303999-0.042-0.609998-0.076-0.913997-0.115999a60.481764 60.481764 0 0 0-2.63999-0.273999c-0.335999-0.026-0.667997-0.054-1.003996-0.076a57.169777 57.169777 0 0 0-3.523986-0.121999c-5.717978 0-11.229956 0.859997-16.429936 2.44599-15.117941-16.233937-36.675857-26.391897-60.609763-26.391897a83.579674 83.579674 0 0 0-10.21796 0.663998l15.24194-56.885778-71.843719 19.251925 41.097839 41.095839a82.351678 82.351678 0 0 0-11.397955 4.685982c-29.531885-35.113863-71.72972-59.215769-119.565533-65.245745-0.02-0.002-0.04-0.002-0.058-0.006a179.763298 179.763298 0 0 0-5.335979-0.583998c-0.449998-0.048-0.901996-0.084-1.355995-0.122a166.267351 166.267351 0 0 0-5.777977-0.429998 203.659204 203.659204 0 0 0-4.007984-0.191999c-0.527998-0.02-1.049996-0.042-1.581994-0.058a180.103296 180.103296 0 0 0-5.511979-0.088c-103.291597 0-187.031269 83.739673-187.031269 187.03327 0 9.909961 0.777997 19.639923 2.261991 29.131886a123.831516 123.831516 0 0 0-12.925949 7.225972v-73.547713L271.30094 483.638111l63.729751 36.797856a123.963516 123.963516 0 0 0-42.269835 46.355819 63.409752 63.409752 0 0 0-15.655938-1.951992c-34.901864 0-63.209753 28.25189-63.295753 63.137753-39.249847 31.991875-62.997754 73.705712-62.997754 119.331534 0 0.713997 0.048 1.423994 0.125999 2.135991 0.024 0.213999 0.058 0.425998 0.09 0.639998a19.815923 19.815923 0 0 0 0.425998 2.201991c0.135999 0.545998 0.297999 1.091996 0.479999 1.635994 0.052 0.155999 0.096 0.313999 0.151999 0.469998 0.253999 0.707997 0.543998 1.415994 0.875996 2.119992 0.042 0.088 0.094 0.177999 0.136 0.265999 0.295999 0.613998 0.621998 1.219995 0.971996 1.827993 0.102 0.175999 0.209999 0.349999 0.315999 0.525998 0.335999 0.551998 0.693997 1.097996 1.073996 1.645993 0.104 0.149999 0.203999 0.297999 0.311999 0.447998 1.015996 1.407995 2.179991 2.803989 3.491986 4.181984l0.179999 0.179999c0.607998 0.629998 1.247995 1.257995 1.915993 1.879993l0.321998 0.297999c0.707997 0.647997 1.443994 1.293995 2.215992 1.935992l0.073999 0.062a74.927707 74.927707 0 0 0 5.605979 4.189984c0.971996 0.659997 1.979992 1.319995 3.023988 1.969992l0.089999 0.056c40.101843 25.017902 131.061488 42.483834 236.871075 42.483834 142.905442 0 258.748989-31.855876 258.748989-71.155722 0-37.243855-15.831938-71.879719-42.999832-100.749607a187.859266 187.859266 0 0 0 75.229707-78.901691c5.983977 0.169999 12.057953 0.257999 18.207928 0.257999 95.945625 0 173.721321-21.387916 173.721322-47.771814-0.002-31.893875-17.285932-60.933762-45.597822-82.729677zM533.407916 221.523135l-37.187854 64.413748h74.379709z" fill="#1669AD" p-id="1435"></path><path d="M718.747192 668.971387l-19.249924-71.84572-52.593795 52.595795zM419.91636 317.54276l-71.84772-19.251925 19.249925 71.845719z" fill="#1669AD" p-id="1436"></path><path d="M872.292593 414.062383c0.042-0.919996 0.07-1.841993 0.069999-2.77399 0-31.027879-25.155902-56.179781-56.18378-56.17978-5.713978 0-11.225956 0.859997-16.425936 2.44599-15.117941-16.231937-36.675857-26.391897-60.613763-26.391897-31.877875 0-59.549767 18.01993-73.389714 44.429827a42.555834 42.555834 0 0 0-10.511959-1.313995c-23.433908 0-42.437834 18.969926-42.495834 42.393834-26.351897 21.477916-42.295835 49.485807-42.295834 80.115687 0 26.383897 77.777696 47.769813 173.721321 47.769814 95.941625 0 173.717321-21.385916 173.717322-47.769814 0.002-31.889875-17.277933-60.931762-45.591822-82.725676z" fill="#CDCCCA" p-id="1437"></path><path d="M592.207687 518.547974c0-30.63188 15.945938-58.637771 42.295834-80.117687 0.058-23.421909 19.061926-42.389834 42.495834-42.389834 3.627986 0 7.147972 0.453998 10.511959 1.309995 13.839946-26.407897 41.511838-44.429826 73.393714-44.429827 23.933907 0 45.491822 10.15796 60.609763 26.393897a56.129781 56.129781 0 0 1 16.425936-2.44799c9.921961 0 19.237925 2.57999 27.327893 7.093972-9.601962-17.211933-27.979891-28.857887-49.089808-28.857887-5.713978 0-11.225956 0.859997-16.425936 2.44599-15.117941-16.231937-36.675857-26.391897-60.613763-26.391897-31.877875 0-59.549767 18.01993-73.389714 44.429827a42.555834 42.555834 0 0 0-10.511959-1.313995c-23.433908 0-42.437834 18.969926-42.495834 42.393834-26.351897 21.477916-42.295835 49.485807-42.295834 80.115687 0 8.421967 7.933969 16.331936 21.847914 23.20391a13.705946 13.705946 0 0 1-0.085999-1.437995z" fill="#E8E9EC" p-id="1438"></path><path d="M558.827817 460.280202m-187.033269 0a187.033269 187.033269 0 1 0 374.066538 0 187.033269 187.033269 0 1 0-374.066538 0Z" fill="#E65439" p-id="1439"></path><path d="M558.827817 460.280202m-187.033269 0a187.033269 187.033269 0 1 0 374.066538 0 187.033269 187.033269 0 1 0-374.066538 0Z" fill="#BE3D27" p-id="1440"></path><path d="M419.056363 460.280202c0-95.291628 71.261722-173.935321 163.401362-185.553275a189.919258 189.919258 0 0 0-23.627908-1.479994c-103.295597 0-187.035269 83.739673-187.035269 187.033269s83.737673 187.031269 187.035269 187.031269c8.003969 0 15.889938-0.505998 23.627908-1.479994-92.13964-11.617955-163.401362-90.261647-163.401362-185.551275z" fill="#E65439" p-id="1441"></path><path d="M521.637962 262.582974l37.191855-64.413748 37.187855 64.413748zM521.637962 657.97543l37.191855 64.413748 37.187855-64.413748zM756.525045 423.090347l64.413748 37.189855-64.413748 37.187855zM361.130589 423.090347l-64.413748 37.189855 64.413748 37.187855z" fill="#E65439" p-id="1442"></path><path d="M756.525045 423.090347l64.413748 37.189855-64.413748 37.187855zM361.130589 423.090347l-64.413748 37.189855 64.413748 37.187855z" fill="#E65439" p-id="1443"></path><path d="M672.321374 294.190851l71.847719-19.251925-19.249925 71.843719zM392.740466 573.773759l-19.249925 71.845719 71.843719-19.249925z" fill="#E65439" p-id="1444"></path><path d="M724.919168 573.773759l19.249925 71.845719-71.847719-19.249925zM445.33426 294.190851l-71.843719-19.251925 19.249925 71.843719z" fill="#E65439" p-id="1445"></path><path d="M625.817555 600.733653a85.559666 85.559666 0 0 0 0.106-4.127983c0-46.215819-37.463854-83.677673-83.679673-83.677674-8.515967 0-16.725935 1.279995-24.467905 3.643986-22.515912-24.181906-54.627787-39.311846-90.277647-39.311846-47.487815 0-88.703654 26.839895-109.315573 66.175741a63.433752 63.433752 0 0 0-15.655939-1.953992c-34.905864 0-63.209753 28.25389-63.299752 63.141753-39.249847 31.989875-62.995754 73.703712-62.995754 119.331534 0 39.295847 115.847547 71.153722 258.748989 71.153722 142.905442 0 258.752989-31.857876 258.752989-71.153722-0.002-47.499814-25.743899-90.755645-67.915735-123.221519z" fill="#CDCCCA" p-id="1446"></path><path d="M208.643185 756.367045c0-45.625822 23.745907-87.339659 62.995754-119.331533 0.09-34.885864 28.393889-63.141753 63.295753-63.141754 5.405979 0 10.651958 0.679997 15.655939 1.953993 20.617919-39.331846 61.831758-66.175742 109.319572-66.175742 35.647861 0 67.761735 15.127941 90.277648 39.313847a83.641673 83.641673 0 0 1 24.467904-3.645986 83.241675 83.241675 0 0 1 40.699841 10.569958c-14.299944-25.6359-41.675837-42.981832-73.113714-42.981832-8.515967 0-16.725935 1.279995-24.467905 3.643986-22.515912-24.181906-54.627787-39.311846-90.277647-39.311846-47.487815 0-88.703654 26.839895-109.315573 66.175741a63.433752 63.433752 0 0 0-15.655939-1.953992c-34.905864 0-63.209753 28.25389-63.299752 63.141753-39.249847 31.989875-62.995754 73.703712-62.995754 119.331534 0 12.541951 11.819954 24.327905 32.539872 34.559865a20.871918 20.871918 0 0 1-0.125999-2.147992z" fill="#E8E9EC" p-id="1447"></path></svg>