<?xml version="1.0" standalone="no"?><!DOCTYPE svg PUBLIC "-//W3C//DTD SVG 1.1//EN" "http://www.w3.org/Graphics/SVG/1.1/DTD/svg11.dtd"><svg t="1696900485322" class="icon" viewBox="0 0 1024 1024" version="1.1" xmlns="http://www.w3.org/2000/svg" p-id="1010" xmlns:xlink="http://www.w3.org/1999/xlink" width="200" height="200"><path d="M716.8606811 834.14584889l23.35023445 49.58890666a1990.03704889 1990.03704889 0 0 1-457.41700778 0l23.35023445-49.58890666a38.98178333 38.98178333 0 0 0-67.42926222-38.69051222l-86.8958811 126.58157c-23.42305223 34.10299221 1.01944889 80.51219001 42.37994667 80.51219 19.90352555 0 38.03515221-11.50520889 46.53056-29.51547334a21.11715555 21.11715555 0 0 1 19.1268022-12.13629554l43.54503111 4.61179221c138.35377778 14.53928334 277.84836779 14.53928334 416.20214557 0l43.56930332-4.61179221a21.11715555 21.11715555 0 0 1 19.10253113 12.13629554 51.43362333 51.43362333 0 0 0 46.53056 29.51547334c41.38476999 0 65.77872555-46.40919666 42.37994667-80.51219l-86.89588224-126.58157a38.98178333 38.98178333 0 0 0-67.42926223 38.69051222" fill="#64CBFF" p-id="1011"></path><path d="M48.63620779 253.25416334v393.216c0 105.61004999 84.22589667 194.22928555 194.61764664 204.18104889 196.53518222 17.74326557 339.96193223 17.74326557 536.49711446 0 110.41602333-9.95176334 194.64192-98.54672555 194.64192-204.20532224V253.25416334c0-105.63432334-84.22589667-207.84620999-194.64192-217.82224668-196.53518222-17.71899221-339.96193223-17.71899221-536.49711446 0-110.41602333 9.95176334-194.64192 112.18792334-194.64192 217.82224668" fill="#64CBFF" p-id="1012"></path><path d="M169.34380999 243.18103666v101.38662001c0 55.7056 44.41884445 102.43034112 102.67306667 107.69749334 103.64396999 9.34494777 375.35137223 9.34494777 478.99534222 0 58.25422222-5.24288 102.67306667-51.99189333 102.67306667-107.69749334v-101.38662001c0-55.72987221-44.41884445-102.43034112-102.67306667-107.69749333-103.64396999-9.36922112-375.37564445-9.36922112-479.01961443 0-58.22995001 5.26715221-102.64879445 51.96762112-102.64879446 107.69749333M357.35931221 645.81480334a94.00775111 94.00775111 0 1 1-188.01550222 0 94.00775111 94.00775111 0 0 1 188.01550222 0M853.66101333 645.81480334a94.00775111 94.00775111 0 1 1-188.01550222 0 94.00775111 94.00775111 0 0 1 188.01550222 0" fill="#ffffff" fill-opacity=".8" p-id="1013"></path></svg>