<?xml version="1.0" standalone="no"?><!DOCTYPE svg PUBLIC "-//W3C//DTD SVG 1.1//EN" "http://www.w3.org/Graphics/SVG/1.1/DTD/svg11.dtd"><svg t="1696899968636" class="icon" viewBox="0 0 1024 1024" version="1.1" xmlns="http://www.w3.org/2000/svg" p-id="1440" xmlns:xlink="http://www.w3.org/1999/xlink" width="200" height="200"><path d="M14.8973037 14.8973037m372.82702222 0l248.55134816 0q372.82702222 0 372.82702222 372.82702222l0 248.55134816q0 372.82702222-372.82702222 372.82702222l-248.55134816 0q-372.82702222 0-372.82702222-372.82702222l0-248.55134816q0-372.82702222 372.82702222-372.82702222Z" fill="#64CBFF" p-id="1441"></path><path d="M710.84107852 263.44865185c61.7712238 0 111.84810667 50.07688287 111.84810666 111.84810667v273.40648296c0 61.7712238-50.07688287 111.84810667-111.84810666 111.84810667H313.15892148c-61.7712238 0-111.84810667-50.07688287-111.84810666-111.84810667V375.29675852c0-61.7712238 50.07688287-111.84810667 111.84810666-111.84810667h397.68215704zM419.47054687 434.66946181c-11.32151391-8.26433232-27.57677207-5.65454317-35.53041522 5.96523236L267.64295585 610.36419603l-0.70215756 1.09362593c-6.71710018 11.00461093-3.49214644 25.33980994 7.55596098 32.54158526l1.11848107 0.68972999c11.27801742 6.55554181 25.97361588 3.40515347 33.35559092-7.36954747L409.90753375 489.98456434l127.91695132 103.99388407 1.05634323 0.80779188a25.32738238 25.32738238 0 0 0 31.96370338-1.84549376l58.93773842-54.58808984 82.56875786 100.65086843 0.88235729 1.01284674c8.73657989 9.54437177 23.69937104 10.85548013 34.0515347 2.76513375a23.84850186 23.84850186 0 0 0 3.87740102-34.0888174L651.69207145 487.45555437l-0.86992972-1.00663296c-9.27096528-10.13468123-25.41437535-10.89897662-35.64226333-1.42917025l-62.52930541 57.90003655-132.13611046-107.43632024zM546.17581037 375.29675852c-18.87126111 0-34.17581037 14.92550846-34.17581037 33.34316335 0 18.41144112 15.30454926 33.34316336 34.17581037 33.34316336 18.87747489 0 34.17581037-14.93172224 34.17581038-33.34316336C580.35162075 390.22226698 565.05328526 375.29675852 546.17581037 375.29675852z" fill="#FFFFFF" fill-opacity=".8" p-id="1442"></path></svg>